<?xml version="1.0" encoding="UTF-8" standalone="no"?>
<!DOCTYPE svg PUBLIC "-//W3C//DTD SVG 1.1//EN"
 "http://www.w3.org/Graphics/SVG/1.1/DTD/svg11.dtd">
<!-- Generated by graphviz version 7.0.4 (20221203.1631)
 -->
<!-- Pages: 1 -->
<svg width="1246pt" height="221pt"
 viewBox="0.00 0.00 1246.38 221.42" xmlns="http://www.w3.org/2000/svg" xmlns:xlink="http://www.w3.org/1999/xlink">
<g id="graph0" class="graph" transform="scale(1 1) rotate(0) translate(4 217.42)">
<polygon fill="white" stroke="none" points="-4,4 -4,-217.42 1242.38,-217.42 1242.38,4 -4,4"/>
<!-- &#45;1 -->
<g id="node1" class="node">
<title>&#45;1</title>
<polygon fill="lightgray" stroke="black" points="24,-204.04 0,-204.04 0,-186.04 24,-186.04 24,-204.04"/>
<text text-anchor="middle" x="12" y="-192.84" font-family="Times New Roman,serif" font-size="9.00">&#45;1</text>
</g>
<!-- &#45;2 -->
<g id="node2" class="node">
<title>&#45;2</title>
<polygon fill="lightgray" stroke="black" points="66,-204.04 42,-204.04 42,-186.04 66,-186.04 66,-204.04"/>
<text text-anchor="middle" x="54" y="-192.84" font-family="Times New Roman,serif" font-size="9.00">&#45;2</text>
</g>
<!-- 1 -->
<g id="node18" class="node">
<title>1</title>
<ellipse fill="lightblue" stroke="black" cx="54" cy="-106.71" rx="14.7" ry="14.7"/>
<text text-anchor="middle" x="54" y="-104.51" font-family="Times New Roman,serif" font-size="9.00">1</text>
</g>
<!-- &#45;2&#45;&gt;1 -->
<g id="edge1" class="edge">
<title>&#45;2&#45;&gt;1</title>
<path fill="none" stroke="red" stroke-width="0.56" d="M54,-185.76C54,-173.59 54,-150.35 54,-132.39"/>
<polygon fill="red" stroke="red" stroke-width="0.56" points="57.5,-132.62 54,-122.62 50.5,-132.62 57.5,-132.62"/>
</g>
<!-- &#45;3 -->
<g id="node3" class="node">
<title>&#45;3</title>
<polygon fill="lightgray" stroke="black" points="108,-204.04 84,-204.04 84,-186.04 108,-186.04 108,-204.04"/>
<text text-anchor="middle" x="96" y="-192.84" font-family="Times New Roman,serif" font-size="9.00">&#45;3</text>
</g>
<!-- &#45;4 -->
<g id="node4" class="node">
<title>&#45;4</title>
<polygon fill="lightgray" stroke="black" points="150,-204.04 126,-204.04 126,-186.04 150,-186.04 150,-204.04"/>
<text text-anchor="middle" x="138" y="-192.84" font-family="Times New Roman,serif" font-size="9.00">&#45;4</text>
</g>
<!-- 14 -->
<g id="node31" class="node">
<title>14</title>
<ellipse fill="lightblue" stroke="black" cx="138" cy="-106.71" rx="18.27" ry="18.27"/>
<text text-anchor="middle" x="138" y="-104.51" font-family="Times New Roman,serif" font-size="9.00">14</text>
</g>
<!-- &#45;4&#45;&gt;14 -->
<g id="edge4" class="edge">
<title>&#45;4&#45;&gt;14</title>
<path fill="none" stroke="red" stroke-width="0.11" d="M138,-185.76C138,-174.19 138,-152.63 138,-135.09"/>
<polygon fill="red" stroke="red" stroke-width="0.11" points="141.5,-135.52 138,-125.52 134.5,-135.52 141.5,-135.52"/>
</g>
<!-- &#45;5 -->
<g id="node5" class="node">
<title>&#45;5</title>
<polygon fill="lightgray" stroke="black" points="192,-204.04 168,-204.04 168,-186.04 192,-186.04 192,-204.04"/>
<text text-anchor="middle" x="180" y="-192.84" font-family="Times New Roman,serif" font-size="9.00">&#45;5</text>
</g>
<!-- &#45;6 -->
<g id="node6" class="node">
<title>&#45;6</title>
<polygon fill="lightgray" stroke="black" points="234,-204.04 210,-204.04 210,-186.04 234,-186.04 234,-204.04"/>
<text text-anchor="middle" x="222" y="-192.84" font-family="Times New Roman,serif" font-size="9.00">&#45;6</text>
</g>
<!-- 5 -->
<g id="node22" class="node">
<title>5</title>
<ellipse fill="lightblue" stroke="black" cx="222" cy="-106.71" rx="14.7" ry="14.7"/>
<text text-anchor="middle" x="222" y="-104.51" font-family="Times New Roman,serif" font-size="9.00">5</text>
</g>
<!-- &#45;6&#45;&gt;5 -->
<g id="edge3" class="edge">
<title>&#45;6&#45;&gt;5</title>
<path fill="none" stroke="red" stroke-width="1.19" d="M222,-185.76C222,-173.82 222,-151.23 222,-133.42"/>
<polygon fill="red" stroke="red" stroke-width="1.19" points="225.5,-133.57 222,-123.57 218.5,-133.57 225.5,-133.57"/>
</g>
<!-- &#45;7 -->
<g id="node7" class="node">
<title>&#45;7</title>
<polygon fill="lightgray" stroke="black" points="276,-204.04 252,-204.04 252,-186.04 276,-186.04 276,-204.04"/>
<text text-anchor="middle" x="264" y="-192.84" font-family="Times New Roman,serif" font-size="9.00">&#45;7</text>
</g>
<!-- 12 -->
<g id="node29" class="node">
<title>12</title>
<ellipse fill="lightblue" stroke="black" cx="291" cy="-106.71" rx="18.27" ry="18.27"/>
<text text-anchor="middle" x="291" y="-104.51" font-family="Times New Roman,serif" font-size="9.00">12</text>
</g>
<!-- &#45;7&#45;&gt;12 -->
<g id="edge5" class="edge">
<title>&#45;7&#45;&gt;12</title>
<path fill="none" stroke="green" stroke-width="0.71" d="M266.59,-185.76C270.22,-174.16 276.99,-152.51 282.48,-134.95"/>
<polygon fill="green" stroke="green" stroke-width="0.71" points="285.73,-136.29 285.37,-125.7 279.05,-134.2 285.73,-136.29"/>
</g>
<!-- &#45;8 -->
<g id="node8" class="node">
<title>&#45;8</title>
<polygon fill="lightgray" stroke="black" points="366,-204.04 342,-204.04 342,-186.04 366,-186.04 366,-204.04"/>
<text text-anchor="middle" x="354" y="-192.84" font-family="Times New Roman,serif" font-size="9.00">&#45;8</text>
</g>
<!-- &#45;9 -->
<g id="node9" class="node">
<title>&#45;9</title>
<polygon fill="lightgray" stroke="black" points="408,-204.04 384,-204.04 384,-186.04 408,-186.04 408,-204.04"/>
<text text-anchor="middle" x="396" y="-192.84" font-family="Times New Roman,serif" font-size="9.00">&#45;9</text>
</g>
<!-- &#45;10 -->
<g id="node10" class="node">
<title>&#45;10</title>
<polygon fill="lightgray" stroke="black" points="455.5,-204.04 426.5,-204.04 426.5,-186.04 455.5,-186.04 455.5,-204.04"/>
<text text-anchor="middle" x="441" y="-192.84" font-family="Times New Roman,serif" font-size="9.00">&#45;10</text>
</g>
<!-- &#45;11 -->
<g id="node11" class="node">
<title>&#45;11</title>
<polygon fill="lightgray" stroke="black" points="502.5,-204.04 473.5,-204.04 473.5,-186.04 502.5,-186.04 502.5,-204.04"/>
<text text-anchor="middle" x="488" y="-192.84" font-family="Times New Roman,serif" font-size="9.00">&#45;11</text>
</g>
<!-- &#45;12 -->
<g id="node12" class="node">
<title>&#45;12</title>
<polygon fill="lightgray" stroke="black" points="549.5,-204.04 520.5,-204.04 520.5,-186.04 549.5,-186.04 549.5,-204.04"/>
<text text-anchor="middle" x="535" y="-192.84" font-family="Times New Roman,serif" font-size="9.00">&#45;12</text>
</g>
<!-- &#45;13 -->
<g id="node13" class="node">
<title>&#45;13</title>
<polygon fill="lightgray" stroke="black" points="323.5,-204.04 294.5,-204.04 294.5,-186.04 323.5,-186.04 323.5,-204.04"/>
<text text-anchor="middle" x="309" y="-192.84" font-family="Times New Roman,serif" font-size="9.00">&#45;13</text>
</g>
<!-- &#45;13&#45;&gt;12 -->
<g id="edge2" class="edge">
<title>&#45;13&#45;&gt;12</title>
<path fill="none" stroke="red" stroke-width="1.29" d="M307.27,-185.76C304.93,-174.5 300.61,-153.78 297.01,-136.51"/>
<polygon fill="red" stroke="red" stroke-width="1.29" points="300.47,-136 295.01,-126.92 293.62,-137.43 300.47,-136"/>
</g>
<!-- &#45;14 -->
<g id="node14" class="node">
<title>&#45;14</title>
<polygon fill="lightgray" stroke="black" points="596.5,-204.04 567.5,-204.04 567.5,-186.04 596.5,-186.04 596.5,-204.04"/>
<text text-anchor="middle" x="582" y="-192.84" font-family="Times New Roman,serif" font-size="9.00">&#45;14</text>
</g>
<!-- &#45;15 -->
<g id="node15" class="node">
<title>&#45;15</title>
<polygon fill="lightgray" stroke="black" points="643.5,-204.04 614.5,-204.04 614.5,-186.04 643.5,-186.04 643.5,-204.04"/>
<text text-anchor="middle" x="629" y="-192.84" font-family="Times New Roman,serif" font-size="9.00">&#45;15</text>
</g>
<!-- &#45;16 -->
<g id="node16" class="node">
<title>&#45;16</title>
<polygon fill="lightgray" stroke="black" points="690.5,-204.04 661.5,-204.04 661.5,-186.04 690.5,-186.04 690.5,-204.04"/>
<text text-anchor="middle" x="676" y="-192.84" font-family="Times New Roman,serif" font-size="9.00">&#45;16</text>
</g>
<!-- 8199623 -->
<g id="node33" class="node">
<title>8199623</title>
<ellipse fill="white" stroke="black" cx="676" cy="-106.71" rx="33.88" ry="33.88"/>
<text text-anchor="middle" x="676" y="-104.51" font-family="Times New Roman,serif" font-size="9.00">8199623</text>
</g>
<!-- &#45;16&#45;&gt;8199623 -->
<g id="edge6" class="edge">
<title>&#45;16&#45;&gt;8199623</title>
<path fill="none" stroke="green" stroke-width="0.35" d="M676,-185.76C676,-177.63 676,-164.58 676,-151.46"/>
<polygon fill="green" stroke="green" stroke-width="0.35" points="679.5,-151.55 676,-141.55 672.5,-151.55 679.5,-151.55"/>
</g>
<!-- 0 -->
<g id="node17" class="node">
<title>0</title>
<ellipse fill="lightblue" stroke="black" cx="723" cy="-195.04" rx="14.7" ry="14.7"/>
<text text-anchor="middle" x="723" y="-192.84" font-family="Times New Roman,serif" font-size="9.00">0</text>
</g>
<!-- 2 -->
<g id="node19" class="node">
<title>2</title>
<ellipse fill="lightblue" stroke="black" cx="771" cy="-195.04" rx="14.7" ry="14.7"/>
<text text-anchor="middle" x="771" y="-192.84" font-family="Times New Roman,serif" font-size="9.00">2</text>
</g>
<!-- 3 -->
<g id="node20" class="node">
<title>3</title>
<ellipse fill="lightblue" stroke="black" cx="819" cy="-195.04" rx="14.7" ry="14.7"/>
<text text-anchor="middle" x="819" y="-192.84" font-family="Times New Roman,serif" font-size="9.00">3</text>
</g>
<!-- 4 -->
<g id="node21" class="node">
<title>4</title>
<ellipse fill="lightblue" stroke="black" cx="867" cy="-195.04" rx="14.7" ry="14.7"/>
<text text-anchor="middle" x="867" y="-192.84" font-family="Times New Roman,serif" font-size="9.00">4</text>
</g>
<!-- 6 -->
<g id="node23" class="node">
<title>6</title>
<ellipse fill="lightblue" stroke="black" cx="915" cy="-195.04" rx="14.7" ry="14.7"/>
<text text-anchor="middle" x="915" y="-192.84" font-family="Times New Roman,serif" font-size="9.00">6</text>
</g>
<!-- 7 -->
<g id="node24" class="node">
<title>7</title>
<ellipse fill="lightblue" stroke="black" cx="963" cy="-195.04" rx="14.7" ry="14.7"/>
<text text-anchor="middle" x="963" y="-192.84" font-family="Times New Roman,serif" font-size="9.00">7</text>
</g>
<!-- 8 -->
<g id="node25" class="node">
<title>8</title>
<ellipse fill="lightblue" stroke="black" cx="1011" cy="-195.04" rx="14.7" ry="14.7"/>
<text text-anchor="middle" x="1011" y="-192.84" font-family="Times New Roman,serif" font-size="9.00">8</text>
</g>
<!-- 9 -->
<g id="node26" class="node">
<title>9</title>
<ellipse fill="lightblue" stroke="black" cx="1059" cy="-195.04" rx="14.7" ry="14.7"/>
<text text-anchor="middle" x="1059" y="-192.84" font-family="Times New Roman,serif" font-size="9.00">9</text>
</g>
<!-- 10 -->
<g id="node27" class="node">
<title>10</title>
<ellipse fill="lightblue" stroke="black" cx="676" cy="-18.38" rx="18.27" ry="18.27"/>
<text text-anchor="middle" x="676" y="-16.18" font-family="Times New Roman,serif" font-size="9.00">10</text>
</g>
<!-- 11 -->
<g id="node28" class="node">
<title>11</title>
<ellipse fill="lightblue" stroke="black" cx="1110" cy="-195.04" rx="18.27" ry="18.27"/>
<text text-anchor="middle" x="1110" y="-192.84" font-family="Times New Roman,serif" font-size="9.00">11</text>
</g>
<!-- 13 -->
<g id="node30" class="node">
<title>13</title>
<ellipse fill="lightblue" stroke="black" cx="1165" cy="-195.04" rx="18.27" ry="18.27"/>
<text text-anchor="middle" x="1165" y="-192.84" font-family="Times New Roman,serif" font-size="9.00">13</text>
</g>
<!-- 15 -->
<g id="node32" class="node">
<title>15</title>
<ellipse fill="lightblue" stroke="black" cx="1220" cy="-195.04" rx="18.27" ry="18.27"/>
<text text-anchor="middle" x="1220" y="-192.84" font-family="Times New Roman,serif" font-size="9.00">15</text>
</g>
<!-- 8199623&#45;&gt;10 -->
<g id="edge7" class="edge">
<title>8199623&#45;&gt;10</title>
<path fill="none" stroke="red" stroke-width="0.69" d="M676,-72.58C676,-64.4 676,-55.72 676,-47.79"/>
<polygon fill="red" stroke="red" stroke-width="0.69" points="679.5,-47.89 676,-37.89 672.5,-47.89 679.5,-47.89"/>
</g>
</g>
</svg>
