<?xml version="1.0" encoding="UTF-8" standalone="no"?>
<!DOCTYPE svg PUBLIC "-//W3C//DTD SVG 1.1//EN"
 "http://www.w3.org/Graphics/SVG/1.1/DTD/svg11.dtd">
<!-- Generated by graphviz version 7.0.4 (20221203.1631)
 -->
<!-- Pages: 1 -->
<svg width="875pt" height="221pt"
 viewBox="0.00 0.00 874.70 221.42" xmlns="http://www.w3.org/2000/svg" xmlns:xlink="http://www.w3.org/1999/xlink">
<g id="graph0" class="graph" transform="scale(1 1) rotate(0) translate(4 217.42)">
<polygon fill="white" stroke="none" points="-4,4 -4,-217.42 870.7,-217.42 870.7,4 -4,4"/>
<!-- &#45;1 -->
<g id="node1" class="node">
<title>&#45;1</title>
<polygon fill="lightgray" stroke="black" points="26.85,-207.57 2.85,-207.57 2.85,-189.57 26.85,-189.57 26.85,-207.57"/>
<text text-anchor="middle" x="14.85" y="-196.37" font-family="Times New Roman,serif" font-size="9.00">&#45;1</text>
</g>
<!-- 0 -->
<g id="node17" class="node">
<title>0</title>
<ellipse fill="lightblue" stroke="black" cx="14.85" cy="-110.25" rx="14.7" ry="14.7"/>
<text text-anchor="middle" x="14.85" y="-108.05" font-family="Times New Roman,serif" font-size="9.00">0</text>
</g>
<!-- &#45;1&#45;&gt;0 -->
<g id="edge2" class="edge">
<title>&#45;1&#45;&gt;0</title>
<path fill="none" stroke="red" stroke-width="0.25" d="M14.85,-189.29C14.85,-177.06 14.85,-153.67 14.85,-135.67"/>
<polygon fill="red" stroke="red" stroke-width="0.25" points="18.35,-135.68 14.85,-125.68 11.35,-135.68 18.35,-135.68"/>
</g>
<!-- &#45;2 -->
<g id="node2" class="node">
<title>&#45;2</title>
<polygon fill="lightgray" stroke="black" points="96.85,-207.57 72.85,-207.57 72.85,-189.57 96.85,-189.57 96.85,-207.57"/>
<text text-anchor="middle" x="84.85" y="-196.37" font-family="Times New Roman,serif" font-size="9.00">&#45;2</text>
</g>
<!-- 11731651 -->
<g id="node34" class="node">
<title>11731651</title>
<ellipse fill="white" stroke="black" cx="84.85" cy="-110.25" rx="37.45" ry="37.45"/>
<text text-anchor="middle" x="84.85" y="-108.05" font-family="Times New Roman,serif" font-size="9.00">11731651</text>
</g>
<!-- &#45;2&#45;&gt;11731651 -->
<g id="edge18" class="edge">
<title>&#45;2&#45;&gt;11731651</title>
<path fill="none" stroke="green" stroke-width="0.34" d="M84.85,-189.29C84.85,-181.92 84.85,-170.48 84.85,-158.62"/>
<polygon fill="green" stroke="green" stroke-width="0.34" points="88.35,-158.69 84.85,-148.69 81.35,-158.69 88.35,-158.69"/>
</g>
<!-- &#45;3 -->
<g id="node3" class="node">
<title>&#45;3</title>
<polygon fill="lightgray" stroke="black" points="143.85,-207.57 119.85,-207.57 119.85,-189.57 143.85,-189.57 143.85,-207.57"/>
<text text-anchor="middle" x="131.85" y="-196.37" font-family="Times New Roman,serif" font-size="9.00">&#45;3</text>
</g>
<!-- &#45;4 -->
<g id="node4" class="node">
<title>&#45;4</title>
<polygon fill="lightgray" stroke="black" points="189.85,-207.57 165.85,-207.57 165.85,-189.57 189.85,-189.57 189.85,-207.57"/>
<text text-anchor="middle" x="177.85" y="-196.37" font-family="Times New Roman,serif" font-size="9.00">&#45;4</text>
</g>
<!-- 11339092 -->
<g id="node33" class="node">
<title>11339092</title>
<ellipse fill="white" stroke="black" cx="177.85" cy="-110.25" rx="37.45" ry="37.45"/>
<text text-anchor="middle" x="177.85" y="-108.05" font-family="Times New Roman,serif" font-size="9.00">11339092</text>
</g>
<!-- &#45;4&#45;&gt;11339092 -->
<g id="edge14" class="edge">
<title>&#45;4&#45;&gt;11339092</title>
<path fill="none" stroke="green" stroke-width="0.73" d="M177.85,-189.29C177.85,-181.99 177.85,-170.71 177.85,-158.98"/>
<polygon fill="green" stroke="green" stroke-width="0.73" points="181.35,-159.28 177.85,-149.28 174.35,-159.28 181.35,-159.28"/>
</g>
<!-- &#45;5 -->
<g id="node5" class="node">
<title>&#45;5</title>
<polygon fill="lightgray" stroke="black" points="306.85,-207.57 282.85,-207.57 282.85,-189.57 306.85,-189.57 306.85,-207.57"/>
<text text-anchor="middle" x="294.85" y="-196.37" font-family="Times New Roman,serif" font-size="9.00">&#45;5</text>
</g>
<!-- 4 -->
<g id="node21" class="node">
<title>4</title>
<ellipse fill="lightblue" stroke="black" cx="294.85" cy="-110.25" rx="14.7" ry="14.7"/>
<text text-anchor="middle" x="294.85" y="-108.05" font-family="Times New Roman,serif" font-size="9.00">4</text>
</g>
<!-- &#45;5&#45;&gt;4 -->
<g id="edge8" class="edge">
<title>&#45;5&#45;&gt;4</title>
<path fill="none" stroke="red" stroke-width="0.6" d="M294.85,-189.29C294.85,-177.18 294.85,-154.11 294.85,-136.18"/>
<polygon fill="red" stroke="red" stroke-width="0.6" points="298.35,-136.22 294.85,-126.22 291.35,-136.22 298.35,-136.22"/>
</g>
<!-- &#45;6 -->
<g id="node6" class="node">
<title>&#45;6</title>
<polygon fill="lightgray" stroke="black" points="354.85,-207.57 330.85,-207.57 330.85,-189.57 354.85,-189.57 354.85,-207.57"/>
<text text-anchor="middle" x="342.85" y="-196.37" font-family="Times New Roman,serif" font-size="9.00">&#45;6</text>
</g>
<!-- 5 -->
<g id="node22" class="node">
<title>5</title>
<ellipse fill="lightblue" stroke="black" cx="342.85" cy="-110.25" rx="14.7" ry="14.7"/>
<text text-anchor="middle" x="342.85" y="-108.05" font-family="Times New Roman,serif" font-size="9.00">5</text>
</g>
<!-- &#45;6&#45;&gt;5 -->
<g id="edge7" class="edge">
<title>&#45;6&#45;&gt;5</title>
<path fill="none" stroke="red" stroke-width="1.39" d="M342.85,-189.29C342.85,-177.41 342.85,-154.98 342.85,-137.21"/>
<polygon fill="red" stroke="red" stroke-width="1.39" points="346.35,-137.41 342.85,-127.41 339.35,-137.41 346.35,-137.41"/>
</g>
<!-- &#45;7 -->
<g id="node7" class="node">
<title>&#45;7</title>
<polygon fill="lightgray" stroke="black" points="456.85,-207.57 432.85,-207.57 432.85,-189.57 456.85,-189.57 456.85,-207.57"/>
<text text-anchor="middle" x="444.85" y="-196.37" font-family="Times New Roman,serif" font-size="9.00">&#45;7</text>
</g>
<!-- 6 -->
<g id="node23" class="node">
<title>6</title>
<ellipse fill="lightblue" stroke="black" cx="444.85" cy="-110.25" rx="14.7" ry="14.7"/>
<text text-anchor="middle" x="444.85" y="-108.05" font-family="Times New Roman,serif" font-size="9.00">6</text>
</g>
<!-- &#45;7&#45;&gt;6 -->
<g id="edge9" class="edge">
<title>&#45;7&#45;&gt;6</title>
<path fill="none" stroke="red" stroke-width="1.04" d="M444.85,-189.29C444.85,-177.29 444.85,-154.55 444.85,-136.69"/>
<polygon fill="red" stroke="red" stroke-width="1.04" points="448.35,-136.88 444.85,-126.88 441.35,-136.88 448.35,-136.88"/>
</g>
<!-- &#45;8 -->
<g id="node8" class="node">
<title>&#45;8</title>
<polygon fill="lightgray" stroke="black" points="504.85,-207.57 480.85,-207.57 480.85,-189.57 504.85,-189.57 504.85,-207.57"/>
<text text-anchor="middle" x="492.85" y="-196.37" font-family="Times New Roman,serif" font-size="9.00">&#45;8</text>
</g>
<!-- 7 -->
<g id="node24" class="node">
<title>7</title>
<ellipse fill="lightblue" stroke="black" cx="492.85" cy="-110.25" rx="14.7" ry="14.7"/>
<text text-anchor="middle" x="492.85" y="-108.05" font-family="Times New Roman,serif" font-size="9.00">7</text>
</g>
<!-- &#45;8&#45;&gt;7 -->
<g id="edge11" class="edge">
<title>&#45;8&#45;&gt;7</title>
<path fill="none" stroke="red" stroke-width="1.56" d="M492.85,-189.29C492.85,-177.47 492.85,-155.2 492.85,-137.47"/>
<polygon fill="red" stroke="red" stroke-width="1.56" points="496.35,-137.66 492.85,-127.66 489.35,-137.66 496.35,-137.66"/>
</g>
<!-- &#45;9 -->
<g id="node9" class="node">
<title>&#45;9</title>
<polygon fill="lightgray" stroke="black" points="552.85,-207.57 528.85,-207.57 528.85,-189.57 552.85,-189.57 552.85,-207.57"/>
<text text-anchor="middle" x="540.85" y="-196.37" font-family="Times New Roman,serif" font-size="9.00">&#45;9</text>
</g>
<!-- 8 -->
<g id="node25" class="node">
<title>8</title>
<ellipse fill="lightblue" stroke="black" cx="540.85" cy="-110.25" rx="14.7" ry="14.7"/>
<text text-anchor="middle" x="540.85" y="-108.05" font-family="Times New Roman,serif" font-size="9.00">8</text>
</g>
<!-- &#45;9&#45;&gt;8 -->
<g id="edge5" class="edge">
<title>&#45;9&#45;&gt;8</title>
<path fill="none" stroke="red" stroke-width="1.82" d="M540.85,-189.29C540.85,-177.58 540.85,-155.63 540.85,-137.99"/>
<polygon fill="red" stroke="red" stroke-width="1.82" points="544.35,-138.07 540.85,-128.07 537.35,-138.07 544.35,-138.07"/>
</g>
<!-- &#45;10 -->
<g id="node10" class="node">
<title>&#45;10</title>
<polygon fill="lightgray" stroke="black" points="603.35,-207.57 574.35,-207.57 574.35,-189.57 603.35,-189.57 603.35,-207.57"/>
<text text-anchor="middle" x="588.85" y="-196.37" font-family="Times New Roman,serif" font-size="9.00">&#45;10</text>
</g>
<!-- 9 -->
<g id="node26" class="node">
<title>9</title>
<ellipse fill="lightblue" stroke="black" cx="588.85" cy="-110.25" rx="14.7" ry="14.7"/>
<text text-anchor="middle" x="588.85" y="-108.05" font-family="Times New Roman,serif" font-size="9.00">9</text>
</g>
<!-- &#45;10&#45;&gt;9 -->
<g id="edge12" class="edge">
<title>&#45;10&#45;&gt;9</title>
<path fill="none" stroke="red" stroke-width="0.38" d="M588.85,-189.29C588.85,-177.06 588.85,-153.67 588.85,-135.67"/>
<polygon fill="red" stroke="red" stroke-width="0.38" points="592.35,-135.88 588.85,-125.88 585.35,-135.88 592.35,-135.88"/>
</g>
<!-- &#45;11 -->
<g id="node11" class="node">
<title>&#45;11</title>
<polygon fill="lightgray" stroke="black" points="654.35,-207.57 625.35,-207.57 625.35,-189.57 654.35,-189.57 654.35,-207.57"/>
<text text-anchor="middle" x="639.85" y="-196.37" font-family="Times New Roman,serif" font-size="9.00">&#45;11</text>
</g>
<!-- 10 -->
<g id="node27" class="node">
<title>10</title>
<ellipse fill="lightblue" stroke="black" cx="639.85" cy="-110.25" rx="18.27" ry="18.27"/>
<text text-anchor="middle" x="639.85" y="-108.05" font-family="Times New Roman,serif" font-size="9.00">10</text>
</g>
<!-- &#45;11&#45;&gt;10 -->
<g id="edge1" class="edge">
<title>&#45;11&#45;&gt;10</title>
<path fill="none" stroke="red" stroke-width="3.02" d="M639.85,-189.29C639.85,-178.75 639.85,-159.91 639.85,-143.39"/>
<polygon fill="red" stroke="red" stroke-width="3.02" points="643.35,-143.44 639.85,-133.44 636.35,-143.44 643.35,-143.44"/>
</g>
<!-- &#45;12 -->
<g id="node12" class="node">
<title>&#45;12</title>
<polygon fill="lightgray" stroke="black" points="709.35,-207.57 680.35,-207.57 680.35,-189.57 709.35,-189.57 709.35,-207.57"/>
<text text-anchor="middle" x="694.85" y="-196.37" font-family="Times New Roman,serif" font-size="9.00">&#45;12</text>
</g>
<!-- 11 -->
<g id="node28" class="node">
<title>11</title>
<ellipse fill="lightblue" stroke="black" cx="694.85" cy="-110.25" rx="18.27" ry="18.27"/>
<text text-anchor="middle" x="694.85" y="-108.05" font-family="Times New Roman,serif" font-size="9.00">11</text>
</g>
<!-- &#45;12&#45;&gt;11 -->
<g id="edge4" class="edge">
<title>&#45;12&#45;&gt;11</title>
<path fill="none" stroke="red" stroke-width="0.38" d="M694.85,-189.29C694.85,-177.83 694.85,-156.57 694.85,-139.12"/>
<polygon fill="red" stroke="red" stroke-width="0.38" points="698.35,-139.45 694.85,-129.45 691.35,-139.45 698.35,-139.45"/>
</g>
<!-- &#45;13 -->
<g id="node13" class="node">
<title>&#45;13</title>
<polygon fill="lightgray" stroke="black" points="405.35,-207.57 376.35,-207.57 376.35,-189.57 405.35,-189.57 405.35,-207.57"/>
<text text-anchor="middle" x="390.85" y="-196.37" font-family="Times New Roman,serif" font-size="9.00">&#45;13</text>
</g>
<!-- &#45;13&#45;&gt;5 -->
<g id="edge20" class="edge">
<title>&#45;13&#45;&gt;5</title>
<path fill="none" stroke="red" stroke-width="0.25" d="M386.25,-189.29C379.01,-176.29 364.76,-150.65 354.56,-132.31"/>
<polygon fill="red" stroke="red" stroke-width="0.25" points="357.76,-130.85 349.84,-123.82 351.64,-134.26 357.76,-130.85"/>
</g>
<!-- 12 -->
<g id="node29" class="node">
<title>12</title>
<ellipse fill="lightblue" stroke="black" cx="393.85" cy="-110.25" rx="18.27" ry="18.27"/>
<text text-anchor="middle" x="393.85" y="-108.05" font-family="Times New Roman,serif" font-size="9.00">12</text>
</g>
<!-- &#45;13&#45;&gt;12 -->
<g id="edge3" class="edge">
<title>&#45;13&#45;&gt;12</title>
<path fill="none" stroke="red" stroke-width="0.45" d="M391.14,-189.29C391.54,-177.83 392.27,-156.57 392.88,-139.12"/>
<polygon fill="red" stroke="red" stroke-width="0.45" points="396.36,-139.67 393.21,-129.56 389.37,-139.43 396.36,-139.67"/>
</g>
<!-- &#45;14 -->
<g id="node14" class="node">
<title>&#45;14</title>
<polygon fill="lightgray" stroke="black" points="262.35,-119.25 233.35,-119.25 233.35,-101.25 262.35,-101.25 262.35,-119.25"/>
<text text-anchor="middle" x="247.85" y="-108.05" font-family="Times New Roman,serif" font-size="9.00">&#45;14</text>
</g>
<!-- 3 -->
<g id="node20" class="node">
<title>3</title>
<ellipse fill="lightblue" stroke="black" cx="186.85" cy="-18.38" rx="14.7" ry="14.7"/>
<text text-anchor="middle" x="186.85" y="-16.18" font-family="Times New Roman,serif" font-size="9.00">3</text>
</g>
<!-- &#45;14&#45;&gt;3 -->
<g id="edge16" class="edge">
<title>&#45;14&#45;&gt;3</title>
<path fill="none" stroke="red" stroke-width="0.13" d="M242.38,-100.81C237.55,-93.39 230.3,-82.32 223.85,-72.77 216.23,-61.49 207.58,-48.99 200.55,-38.92"/>
<polygon fill="red" stroke="red" stroke-width="0.13" points="203.58,-37.13 194.98,-30.94 197.84,-41.15 203.58,-37.13"/>
</g>
<!-- 13 -->
<g id="node30" class="node">
<title>13</title>
<ellipse fill="lightblue" stroke="black" cx="247.85" cy="-18.38" rx="18.27" ry="18.27"/>
<text text-anchor="middle" x="247.85" y="-16.18" font-family="Times New Roman,serif" font-size="9.00">13</text>
</g>
<!-- &#45;14&#45;&gt;13 -->
<g id="edge6" class="edge">
<title>&#45;14&#45;&gt;13</title>
<path fill="none" stroke="red" stroke-width="2.48" d="M247.85,-100.95C247.85,-89.56 247.85,-68.44 247.85,-50.54"/>
<polygon fill="red" stroke="red" stroke-width="2.48" points="251.35,-50.59 247.85,-40.59 244.35,-50.59 251.35,-50.59"/>
</g>
<!-- &#45;15 -->
<g id="node15" class="node">
<title>&#45;15</title>
<polygon fill="lightgray" stroke="black" points="768.35,-207.57 739.35,-207.57 739.35,-189.57 768.35,-189.57 768.35,-207.57"/>
<text text-anchor="middle" x="753.85" y="-196.37" font-family="Times New Roman,serif" font-size="9.00">&#45;15</text>
</g>
<!-- 14 -->
<g id="node31" class="node">
<title>14</title>
<ellipse fill="lightblue" stroke="black" cx="749.85" cy="-110.25" rx="18.27" ry="18.27"/>
<text text-anchor="middle" x="749.85" y="-108.05" font-family="Times New Roman,serif" font-size="9.00">14</text>
</g>
<!-- &#45;15&#45;&gt;14 -->
<g id="edge10" class="edge">
<title>&#45;15&#45;&gt;14</title>
<path fill="none" stroke="red" stroke-width="3.75" d="M753.47,-189.29C752.99,-178.97 752.14,-160.68 751.39,-144.41"/>
<polygon fill="red" stroke="red" stroke-width="3.75" points="754.89,-144.37 750.93,-134.55 747.9,-144.7 754.89,-144.37"/>
</g>
<!-- 15 -->
<g id="node32" class="node">
<title>15</title>
<ellipse fill="lightblue" stroke="black" cx="804.85" cy="-110.25" rx="18.27" ry="18.27"/>
<text text-anchor="middle" x="804.85" y="-108.05" font-family="Times New Roman,serif" font-size="9.00">15</text>
</g>
<!-- &#45;15&#45;&gt;15 -->
<g id="edge17" class="edge">
<title>&#45;15&#45;&gt;15</title>
<path fill="none" stroke="green" stroke-width="0.16" d="M758.74,-189.29C766.07,-176.89 780.18,-153.01 790.87,-134.91"/>
<polygon fill="green" stroke="green" stroke-width="0.16" points="793.6,-137.17 795.67,-126.78 787.57,-133.61 793.6,-137.17"/>
</g>
<!-- &#45;16 -->
<g id="node16" class="node">
<title>&#45;16</title>
<polygon fill="lightgray" stroke="black" points="819.35,-207.57 790.35,-207.57 790.35,-189.57 819.35,-189.57 819.35,-207.57"/>
<text text-anchor="middle" x="804.85" y="-196.37" font-family="Times New Roman,serif" font-size="9.00">&#45;16</text>
</g>
<!-- &#45;16&#45;&gt;15 -->
<g id="edge13" class="edge">
<title>&#45;16&#45;&gt;15</title>
<path fill="none" stroke="red" stroke-width="0.91" d="M804.85,-189.29C804.85,-178.05 804.85,-157.36 804.85,-140.11"/>
<polygon fill="red" stroke="red" stroke-width="0.91" points="808.35,-140.25 804.85,-130.25 801.35,-140.25 808.35,-140.25"/>
</g>
<!-- 1 -->
<g id="node18" class="node">
<title>1</title>
<ellipse fill="lightblue" stroke="black" cx="84.85" cy="-18.38" rx="14.7" ry="14.7"/>
<text text-anchor="middle" x="84.85" y="-16.18" font-family="Times New Roman,serif" font-size="9.00">1</text>
</g>
<!-- 2 -->
<g id="node19" class="node">
<title>2</title>
<ellipse fill="lightblue" stroke="black" cx="851.85" cy="-198.57" rx="14.7" ry="14.7"/>
<text text-anchor="middle" x="851.85" y="-196.37" font-family="Times New Roman,serif" font-size="9.00">2</text>
</g>
<!-- 11339092&#45;&gt;3 -->
<g id="edge15" class="edge">
<title>11339092&#45;&gt;3</title>
<path fill="none" stroke="red" stroke-width="0.78" d="M181.51,-72.7C182.46,-63.21 183.46,-53.2 184.34,-44.46"/>
<polygon fill="red" stroke="red" stroke-width="0.78" points="187.81,-44.94 185.32,-34.64 180.84,-44.24 187.81,-44.94"/>
</g>
<!-- 11731651&#45;&gt;1 -->
<g id="edge19" class="edge">
<title>11731651&#45;&gt;1</title>
<path fill="none" stroke="red" stroke-width="0.81" d="M84.85,-72.44C84.85,-63.08 84.85,-53.24 84.85,-44.61"/>
<polygon fill="red" stroke="red" stroke-width="0.81" points="88.35,-44.61 84.85,-34.61 81.35,-44.61 88.35,-44.61"/>
</g>
</g>
</svg>
