<?xml version="1.0" encoding="UTF-8" standalone="no"?>
<!DOCTYPE svg PUBLIC "-//W3C//DTD SVG 1.1//EN"
 "http://www.w3.org/Graphics/SVG/1.1/DTD/svg11.dtd">
<!-- Generated by graphviz version 7.0.4 (20221203.1631)
 -->
<!-- Pages: 1 -->
<svg width="1414pt" height="137pt"
 viewBox="0.00 0.00 1414.42 136.95" xmlns="http://www.w3.org/2000/svg" xmlns:xlink="http://www.w3.org/1999/xlink">
<g id="graph0" class="graph" transform="scale(1 1) rotate(0) translate(4 132.95)">
<polygon fill="white" stroke="none" points="-4,4 -4,-132.95 1410.42,-132.95 1410.42,4 -4,4"/>
<!-- input 1 -->
<g id="node1" class="node">
<title>input 1</title>
<polygon fill="lightgray" stroke="black" points="55.44,-128.95 12.44,-128.95 12.44,-110.95 55.44,-110.95 55.44,-128.95"/>
<text text-anchor="middle" x="33.94" y="-117.75" font-family="Times New Roman,serif" font-size="9.00">input 1</text>
</g>
<!-- output 1 -->
<g id="node17" class="node">
<title>output 1</title>
<ellipse fill="lightblue" stroke="black" cx="33.94" cy="-37.48" rx="33.88" ry="33.88"/>
<text text-anchor="middle" x="33.94" y="-35.28" font-family="Times New Roman,serif" font-size="9.00">output 1</text>
</g>
<!-- input 1&#45;&gt;output 1 -->
<g id="edge1" class="edge">
<title>input 1&#45;&gt;output 1</title>
<path fill="none" stroke="red" stroke-width="0.3" d="M33.94,-110.64C33.94,-103.57 33.94,-92.83 33.94,-81.77"/>
<polygon fill="red" stroke="red" stroke-width="0.3" points="37.44,-82.09 33.94,-72.09 30.44,-82.09 37.44,-82.09"/>
</g>
<!-- input 2 -->
<g id="node2" class="node">
<title>input 2</title>
<polygon fill="lightgray" stroke="black" points="141.44,-128.95 98.44,-128.95 98.44,-110.95 141.44,-110.95 141.44,-128.95"/>
<text text-anchor="middle" x="119.94" y="-117.75" font-family="Times New Roman,serif" font-size="9.00">input 2</text>
</g>
<!-- output 2 -->
<g id="node18" class="node">
<title>output 2</title>
<ellipse fill="lightblue" stroke="black" cx="119.94" cy="-37.48" rx="33.88" ry="33.88"/>
<text text-anchor="middle" x="119.94" y="-35.28" font-family="Times New Roman,serif" font-size="9.00">output 2</text>
</g>
<!-- input 2&#45;&gt;output 2 -->
<g id="edge2" class="edge">
<title>input 2&#45;&gt;output 2</title>
<path fill="none" stroke="red" stroke-width="0.3" d="M119.94,-110.64C119.94,-103.57 119.94,-92.83 119.94,-81.77"/>
<polygon fill="red" stroke="red" stroke-width="0.3" points="123.44,-82.09 119.94,-72.09 116.44,-82.09 123.44,-82.09"/>
</g>
<!-- input 3 -->
<g id="node3" class="node">
<title>input 3</title>
<polygon fill="lightgray" stroke="black" points="227.44,-128.95 184.44,-128.95 184.44,-110.95 227.44,-110.95 227.44,-128.95"/>
<text text-anchor="middle" x="205.94" y="-117.75" font-family="Times New Roman,serif" font-size="9.00">input 3</text>
</g>
<!-- output 3 -->
<g id="node19" class="node">
<title>output 3</title>
<ellipse fill="lightblue" stroke="black" cx="205.94" cy="-37.48" rx="33.88" ry="33.88"/>
<text text-anchor="middle" x="205.94" y="-35.28" font-family="Times New Roman,serif" font-size="9.00">output 3</text>
</g>
<!-- input 3&#45;&gt;output 3 -->
<g id="edge3" class="edge">
<title>input 3&#45;&gt;output 3</title>
<path fill="none" stroke="red" stroke-width="0.3" d="M205.94,-110.64C205.94,-103.57 205.94,-92.83 205.94,-81.77"/>
<polygon fill="red" stroke="red" stroke-width="0.3" points="209.44,-82.09 205.94,-72.09 202.44,-82.09 209.44,-82.09"/>
</g>
<!-- input 4 -->
<g id="node4" class="node">
<title>input 4</title>
<polygon fill="lightgray" stroke="black" points="313.44,-128.95 270.44,-128.95 270.44,-110.95 313.44,-110.95 313.44,-128.95"/>
<text text-anchor="middle" x="291.94" y="-117.75" font-family="Times New Roman,serif" font-size="9.00">input 4</text>
</g>
<!-- output 4 -->
<g id="node20" class="node">
<title>output 4</title>
<ellipse fill="lightblue" stroke="black" cx="291.94" cy="-37.48" rx="33.88" ry="33.88"/>
<text text-anchor="middle" x="291.94" y="-35.28" font-family="Times New Roman,serif" font-size="9.00">output 4</text>
</g>
<!-- input 4&#45;&gt;output 4 -->
<g id="edge4" class="edge">
<title>input 4&#45;&gt;output 4</title>
<path fill="none" stroke="red" stroke-width="0.3" d="M291.94,-110.64C291.94,-103.57 291.94,-92.83 291.94,-81.77"/>
<polygon fill="red" stroke="red" stroke-width="0.3" points="295.44,-82.09 291.94,-72.09 288.44,-82.09 295.44,-82.09"/>
</g>
<!-- input 5 -->
<g id="node5" class="node">
<title>input 5</title>
<polygon fill="lightgray" stroke="black" points="399.44,-128.95 356.44,-128.95 356.44,-110.95 399.44,-110.95 399.44,-128.95"/>
<text text-anchor="middle" x="377.94" y="-117.75" font-family="Times New Roman,serif" font-size="9.00">input 5</text>
</g>
<!-- output 5 -->
<g id="node21" class="node">
<title>output 5</title>
<ellipse fill="lightblue" stroke="black" cx="377.94" cy="-37.48" rx="33.88" ry="33.88"/>
<text text-anchor="middle" x="377.94" y="-35.28" font-family="Times New Roman,serif" font-size="9.00">output 5</text>
</g>
<!-- input 5&#45;&gt;output 5 -->
<g id="edge5" class="edge">
<title>input 5&#45;&gt;output 5</title>
<path fill="none" stroke="red" stroke-width="0.3" d="M377.94,-110.64C377.94,-103.57 377.94,-92.83 377.94,-81.77"/>
<polygon fill="red" stroke="red" stroke-width="0.3" points="381.44,-82.09 377.94,-72.09 374.44,-82.09 381.44,-82.09"/>
</g>
<!-- input 6 -->
<g id="node6" class="node">
<title>input 6</title>
<polygon fill="lightgray" stroke="black" points="485.44,-128.95 442.44,-128.95 442.44,-110.95 485.44,-110.95 485.44,-128.95"/>
<text text-anchor="middle" x="463.94" y="-117.75" font-family="Times New Roman,serif" font-size="9.00">input 6</text>
</g>
<!-- output 6 -->
<g id="node22" class="node">
<title>output 6</title>
<ellipse fill="lightblue" stroke="black" cx="463.94" cy="-37.48" rx="33.88" ry="33.88"/>
<text text-anchor="middle" x="463.94" y="-35.28" font-family="Times New Roman,serif" font-size="9.00">output 6</text>
</g>
<!-- input 6&#45;&gt;output 6 -->
<g id="edge6" class="edge">
<title>input 6&#45;&gt;output 6</title>
<path fill="none" stroke="red" stroke-width="0.3" d="M463.94,-110.64C463.94,-103.57 463.94,-92.83 463.94,-81.77"/>
<polygon fill="red" stroke="red" stroke-width="0.3" points="467.44,-82.09 463.94,-72.09 460.44,-82.09 467.44,-82.09"/>
</g>
<!-- input 7 -->
<g id="node7" class="node">
<title>input 7</title>
<polygon fill="lightgray" stroke="black" points="571.44,-128.95 528.44,-128.95 528.44,-110.95 571.44,-110.95 571.44,-128.95"/>
<text text-anchor="middle" x="549.94" y="-117.75" font-family="Times New Roman,serif" font-size="9.00">input 7</text>
</g>
<!-- output 7 -->
<g id="node23" class="node">
<title>output 7</title>
<ellipse fill="lightblue" stroke="black" cx="549.94" cy="-37.48" rx="33.88" ry="33.88"/>
<text text-anchor="middle" x="549.94" y="-35.28" font-family="Times New Roman,serif" font-size="9.00">output 7</text>
</g>
<!-- input 7&#45;&gt;output 7 -->
<g id="edge7" class="edge">
<title>input 7&#45;&gt;output 7</title>
<path fill="none" stroke="red" stroke-width="0.3" d="M549.94,-110.64C549.94,-103.57 549.94,-92.83 549.94,-81.77"/>
<polygon fill="red" stroke="red" stroke-width="0.3" points="553.44,-82.09 549.94,-72.09 546.44,-82.09 553.44,-82.09"/>
</g>
<!-- input 8 -->
<g id="node8" class="node">
<title>input 8</title>
<polygon fill="lightgray" stroke="black" points="657.44,-128.95 614.44,-128.95 614.44,-110.95 657.44,-110.95 657.44,-128.95"/>
<text text-anchor="middle" x="635.94" y="-117.75" font-family="Times New Roman,serif" font-size="9.00">input 8</text>
</g>
<!-- output 8 -->
<g id="node24" class="node">
<title>output 8</title>
<ellipse fill="lightblue" stroke="black" cx="635.94" cy="-37.48" rx="33.88" ry="33.88"/>
<text text-anchor="middle" x="635.94" y="-35.28" font-family="Times New Roman,serif" font-size="9.00">output 8</text>
</g>
<!-- input 8&#45;&gt;output 8 -->
<g id="edge8" class="edge">
<title>input 8&#45;&gt;output 8</title>
<path fill="none" stroke="red" stroke-width="0.3" d="M635.94,-110.64C635.94,-103.57 635.94,-92.83 635.94,-81.77"/>
<polygon fill="red" stroke="red" stroke-width="0.3" points="639.44,-82.09 635.94,-72.09 632.44,-82.09 639.44,-82.09"/>
</g>
<!-- input 9 -->
<g id="node9" class="node">
<title>input 9</title>
<polygon fill="lightgray" stroke="black" points="743.44,-128.95 700.44,-128.95 700.44,-110.95 743.44,-110.95 743.44,-128.95"/>
<text text-anchor="middle" x="721.94" y="-117.75" font-family="Times New Roman,serif" font-size="9.00">input 9</text>
</g>
<!-- output 9 -->
<g id="node25" class="node">
<title>output 9</title>
<ellipse fill="lightblue" stroke="black" cx="721.94" cy="-37.48" rx="33.88" ry="33.88"/>
<text text-anchor="middle" x="721.94" y="-35.28" font-family="Times New Roman,serif" font-size="9.00">output 9</text>
</g>
<!-- input 9&#45;&gt;output 9 -->
<g id="edge9" class="edge">
<title>input 9&#45;&gt;output 9</title>
<path fill="none" stroke="red" stroke-width="0.3" d="M721.94,-110.64C721.94,-103.57 721.94,-92.83 721.94,-81.77"/>
<polygon fill="red" stroke="red" stroke-width="0.3" points="725.44,-82.09 721.94,-72.09 718.44,-82.09 725.44,-82.09"/>
</g>
<!-- input 10 -->
<g id="node10" class="node">
<title>input 10</title>
<polygon fill="lightgray" stroke="black" points="834.44,-128.95 787.44,-128.95 787.44,-110.95 834.44,-110.95 834.44,-128.95"/>
<text text-anchor="middle" x="810.94" y="-117.75" font-family="Times New Roman,serif" font-size="9.00">input 10</text>
</g>
<!-- output 10 -->
<g id="node26" class="node">
<title>output 10</title>
<ellipse fill="lightblue" stroke="black" cx="810.94" cy="-37.48" rx="37.45" ry="37.45"/>
<text text-anchor="middle" x="810.94" y="-35.28" font-family="Times New Roman,serif" font-size="9.00">output 10</text>
</g>
<!-- input 10&#45;&gt;output 10 -->
<g id="edge10" class="edge">
<title>input 10&#45;&gt;output 10</title>
<path fill="none" stroke="red" stroke-width="0.3" d="M810.94,-110.64C810.94,-104.38 810.94,-95.25 810.94,-85.57"/>
<polygon fill="red" stroke="red" stroke-width="0.3" points="814.44,-85.83 810.94,-75.83 807.44,-85.83 814.44,-85.83"/>
</g>
<!-- input 11 -->
<g id="node11" class="node">
<title>input 11</title>
<polygon fill="lightgray" stroke="black" points="927.44,-128.95 880.44,-128.95 880.44,-110.95 927.44,-110.95 927.44,-128.95"/>
<text text-anchor="middle" x="903.94" y="-117.75" font-family="Times New Roman,serif" font-size="9.00">input 11</text>
</g>
<!-- output 11 -->
<g id="node27" class="node">
<title>output 11</title>
<ellipse fill="lightblue" stroke="black" cx="903.94" cy="-37.48" rx="37.45" ry="37.45"/>
<text text-anchor="middle" x="903.94" y="-35.28" font-family="Times New Roman,serif" font-size="9.00">output 11</text>
</g>
<!-- input 11&#45;&gt;output 11 -->
<g id="edge11" class="edge">
<title>input 11&#45;&gt;output 11</title>
<path fill="none" stroke="red" stroke-width="0.3" d="M903.94,-110.64C903.94,-104.38 903.94,-95.25 903.94,-85.57"/>
<polygon fill="red" stroke="red" stroke-width="0.3" points="907.44,-85.83 903.94,-75.83 900.44,-85.83 907.44,-85.83"/>
</g>
<!-- input 12 -->
<g id="node12" class="node">
<title>input 12</title>
<polygon fill="lightgray" stroke="black" points="1020.44,-128.95 973.44,-128.95 973.44,-110.95 1020.44,-110.95 1020.44,-128.95"/>
<text text-anchor="middle" x="996.94" y="-117.75" font-family="Times New Roman,serif" font-size="9.00">input 12</text>
</g>
<!-- output 12 -->
<g id="node28" class="node">
<title>output 12</title>
<ellipse fill="lightblue" stroke="black" cx="996.94" cy="-37.48" rx="37.45" ry="37.45"/>
<text text-anchor="middle" x="996.94" y="-35.28" font-family="Times New Roman,serif" font-size="9.00">output 12</text>
</g>
<!-- input 12&#45;&gt;output 12 -->
<g id="edge12" class="edge">
<title>input 12&#45;&gt;output 12</title>
<path fill="none" stroke="red" stroke-width="0.3" d="M996.94,-110.64C996.94,-104.38 996.94,-95.25 996.94,-85.57"/>
<polygon fill="red" stroke="red" stroke-width="0.3" points="1000.44,-85.83 996.94,-75.83 993.44,-85.83 1000.44,-85.83"/>
</g>
<!-- input 13 -->
<g id="node13" class="node">
<title>input 13</title>
<polygon fill="lightgray" stroke="black" points="1113.44,-128.95 1066.44,-128.95 1066.44,-110.95 1113.44,-110.95 1113.44,-128.95"/>
<text text-anchor="middle" x="1089.94" y="-117.75" font-family="Times New Roman,serif" font-size="9.00">input 13</text>
</g>
<!-- output 13 -->
<g id="node29" class="node">
<title>output 13</title>
<ellipse fill="lightblue" stroke="black" cx="1089.94" cy="-37.48" rx="37.45" ry="37.45"/>
<text text-anchor="middle" x="1089.94" y="-35.28" font-family="Times New Roman,serif" font-size="9.00">output 13</text>
</g>
<!-- input 13&#45;&gt;output 13 -->
<g id="edge13" class="edge">
<title>input 13&#45;&gt;output 13</title>
<path fill="none" stroke="red" stroke-width="0.3" d="M1089.94,-110.64C1089.94,-104.38 1089.94,-95.25 1089.94,-85.57"/>
<polygon fill="red" stroke="red" stroke-width="0.3" points="1093.44,-85.83 1089.94,-75.83 1086.44,-85.83 1093.44,-85.83"/>
</g>
<!-- input 14 -->
<g id="node14" class="node">
<title>input 14</title>
<polygon fill="lightgray" stroke="black" points="1206.44,-128.95 1159.44,-128.95 1159.44,-110.95 1206.44,-110.95 1206.44,-128.95"/>
<text text-anchor="middle" x="1182.94" y="-117.75" font-family="Times New Roman,serif" font-size="9.00">input 14</text>
</g>
<!-- output 14 -->
<g id="node30" class="node">
<title>output 14</title>
<ellipse fill="lightblue" stroke="black" cx="1182.94" cy="-37.48" rx="37.45" ry="37.45"/>
<text text-anchor="middle" x="1182.94" y="-35.28" font-family="Times New Roman,serif" font-size="9.00">output 14</text>
</g>
<!-- input 14&#45;&gt;output 14 -->
<g id="edge14" class="edge">
<title>input 14&#45;&gt;output 14</title>
<path fill="none" stroke="red" stroke-width="0.3" d="M1182.94,-110.64C1182.94,-104.38 1182.94,-95.25 1182.94,-85.57"/>
<polygon fill="red" stroke="red" stroke-width="0.3" points="1186.44,-85.83 1182.94,-75.83 1179.44,-85.83 1186.44,-85.83"/>
</g>
<!-- input 15 -->
<g id="node15" class="node">
<title>input 15</title>
<polygon fill="lightgray" stroke="black" points="1299.44,-128.95 1252.44,-128.95 1252.44,-110.95 1299.44,-110.95 1299.44,-128.95"/>
<text text-anchor="middle" x="1275.94" y="-117.75" font-family="Times New Roman,serif" font-size="9.00">input 15</text>
</g>
<!-- output 15 -->
<g id="node31" class="node">
<title>output 15</title>
<ellipse fill="lightblue" stroke="black" cx="1275.94" cy="-37.48" rx="37.45" ry="37.45"/>
<text text-anchor="middle" x="1275.94" y="-35.28" font-family="Times New Roman,serif" font-size="9.00">output 15</text>
</g>
<!-- input 15&#45;&gt;output 15 -->
<g id="edge15" class="edge">
<title>input 15&#45;&gt;output 15</title>
<path fill="none" stroke="red" stroke-width="0.3" d="M1275.94,-110.64C1275.94,-104.38 1275.94,-95.25 1275.94,-85.57"/>
<polygon fill="red" stroke="red" stroke-width="0.3" points="1279.44,-85.83 1275.94,-75.83 1272.44,-85.83 1279.44,-85.83"/>
</g>
<!-- input 16 -->
<g id="node16" class="node">
<title>input 16</title>
<polygon fill="lightgray" stroke="black" points="1392.44,-128.95 1345.44,-128.95 1345.44,-110.95 1392.44,-110.95 1392.44,-128.95"/>
<text text-anchor="middle" x="1368.94" y="-117.75" font-family="Times New Roman,serif" font-size="9.00">input 16</text>
</g>
<!-- output 16 -->
<g id="node32" class="node">
<title>output 16</title>
<ellipse fill="lightblue" stroke="black" cx="1368.94" cy="-37.48" rx="37.45" ry="37.45"/>
<text text-anchor="middle" x="1368.94" y="-35.28" font-family="Times New Roman,serif" font-size="9.00">output 16</text>
</g>
<!-- input 16&#45;&gt;output 16 -->
<g id="edge16" class="edge">
<title>input 16&#45;&gt;output 16</title>
<path fill="none" stroke="red" stroke-width="0.3" d="M1368.94,-110.64C1368.94,-104.38 1368.94,-95.25 1368.94,-85.57"/>
<polygon fill="red" stroke="red" stroke-width="0.3" points="1372.44,-85.83 1368.94,-75.83 1365.44,-85.83 1372.44,-85.83"/>
</g>
</g>
</svg>
